<svg width="43" height="25" viewBox="0 0 43 25" fill="none" xmlns="http://www.w3.org/2000/svg">
<path fill-rule="evenodd" clip-rule="evenodd" d="M0 0H43V24.9162H0V0Z" fill="white"/>
<path fill-rule="evenodd" clip-rule="evenodd" d="M32.0971 13.6419C31.9394 13.7204 31.8713 13.8381 31.8713 13.982C31.8713 14.466 32.5488 14.4789 33.2033 14.4789H33.3162C33.4739 14.4921 33.542 14.5051 33.6094 14.5314C33.6774 14.5705 33.7222 14.6096 33.7222 14.675C33.7222 14.7275 33.6774 14.7798 33.6094 14.8058C33.5418 14.8452 33.4516 14.8583 33.2935 14.8583H31.9619V15.1721H33.2935C34.0158 15.1721 34.377 15.002 34.377 14.649C34.377 14.492 34.3089 14.3875 34.1735 14.3089C34.0158 14.2173 33.79 14.1781 33.3836 14.1781L33.0001 14.1649C32.8647 14.1649 32.7967 14.1649 32.7065 14.1517C32.5937 14.1258 32.5035 14.0603 32.5035 13.9819C32.5035 13.9165 32.5488 13.8643 32.639 13.838C32.7291 13.7986 32.8194 13.7986 32.9548 13.7986H34.2188V13.4847H32.842C32.5035 13.4849 32.2553 13.5372 32.0971 13.6419V13.6419Z" fill="white"/>
<path fill-rule="evenodd" clip-rule="evenodd" d="M34.4218 14.6489C34.4218 15.0282 34.0158 15.198 33.2932 15.198H31.9164V14.8319H33.2932C33.4286 14.8319 33.519 14.8188 33.5863 14.7797C33.6316 14.7665 33.6544 14.7275 33.6544 14.6749C33.6544 14.6227 33.6316 14.5835 33.5863 14.5573C33.5188 14.5313 33.4514 14.5181 33.3158 14.5181C32.6608 14.5049 31.8035 14.5313 31.8035 13.9819C31.8035 13.7204 32.0745 13.4588 32.8417 13.4588H34.2638V13.838H32.9546C32.8192 13.838 32.7516 13.838 32.661 13.8643C32.5934 13.8903 32.5709 13.9294 32.5709 13.9819C32.5709 14.0473 32.6389 14.0995 32.7291 14.1127C32.7966 14.1259 32.8872 14.1387 33.0001 14.1387H33.3836C33.79 14.1519 34.0385 14.1912 34.1962 14.2826C34.3542 14.3742 34.4218 14.4788 34.4218 14.6489V14.6489ZM31.3975 14.2826C31.2393 14.1912 30.9683 14.1518 30.5848 14.1387H30.2009C30.0655 14.1387 29.9979 14.1258 29.9073 14.1127C29.8172 14.0995 29.7496 14.0473 29.7496 13.9819C29.7496 13.9294 29.7944 13.8903 29.8625 13.8643C29.9301 13.838 30.0202 13.838 30.1556 13.838H31.4649V13.4588H30.02C29.2753 13.4588 29.0043 13.7203 29.0043 13.9819C29.0043 14.5313 29.8395 14.505 30.5165 14.5181C30.6294 14.5181 30.7195 14.5313 30.7648 14.5573C30.8101 14.5835 30.855 14.6227 30.855 14.6749C30.855 14.7274 30.8101 14.7665 30.7648 14.7797C30.6972 14.8189 30.6067 14.8319 30.4717 14.8319H29.0944V15.198H30.4938C31.2161 15.198 31.6224 15.0282 31.6224 14.6489C31.6228 14.4788 31.5327 14.3742 31.3975 14.2826V14.2826ZM28.6661 14.8451H26.9734V14.492H28.6213V14.1388H26.9734V13.825H28.6661V13.4589H26.251V15.1981H28.6661V14.8451V14.8451ZM25.4836 13.5371C25.2579 13.4717 24.9868 13.4589 24.6257 13.4589H22.9557V15.1981H23.678V14.5706H24.468C24.7162 14.5706 24.874 14.5838 24.9868 14.649C25.1222 14.7275 25.0997 14.8843 25.0997 14.9759V15.1981H25.822V14.8583C25.822 14.7013 25.7993 14.6228 25.7092 14.5442C25.6416 14.492 25.5062 14.4266 25.348 14.3874C25.5037 14.3499 25.6364 14.2862 25.7289 14.2046C25.8215 14.1229 25.8697 14.0271 25.8673 13.9294C25.8676 13.7332 25.7094 13.6156 25.4836 13.5371V13.5371ZM21.4209 13.4588H19.1187L18.2159 14.0341L17.3356 13.4588H14.4238V15.198H17.2904L18.1932 14.6227L19.0734 15.198H20.4728V14.6227H21.3756C22.0076 14.6227 22.6171 14.5181 22.6171 14.0341C22.6171 13.5502 21.9851 13.4588 21.4209 13.4588V13.4588ZM24.9195 14.1781C24.8066 14.2041 24.6937 14.2041 24.5583 14.2041H23.6782V13.8248H24.5811C24.6939 13.8248 24.8293 13.8249 24.9197 13.8511C25.0098 13.8771 25.0551 13.9293 25.0551 14.0079C25.0551 14.0865 25.0096 14.1387 24.9195 14.1781V14.1781ZM21.4209 14.2566H20.4728V13.8248H21.4209C21.6692 13.8248 21.8499 13.8771 21.8499 14.0341C21.8499 14.1781 21.6917 14.2566 21.4209 14.2566ZM18.6672 14.3351L19.7732 13.6418V15.0412L18.6672 14.3351ZM16.9067 14.8451H15.1461V14.492H16.7262V14.1388H15.1461V13.825H16.9519L17.7419 14.3352L16.9067 14.8451ZM32.4353 12.2031H31.4196L30.0655 10.8952V12.2031H28.5985L28.3049 11.8107H26.8152L26.5446 12.2031H25.7094C25.3482 12.2031 24.9195 12.1638 24.6712 12.0069C24.4229 11.863 24.2873 11.6668 24.2873 11.3398C24.2873 11.0913 24.3553 10.8559 24.6712 10.6597C24.8969 10.5289 25.2581 10.4635 25.7547 10.4635H26.4545V10.8297H25.777C25.5064 10.8297 25.371 10.8559 25.2128 10.9344C25.0999 11.0129 25.0098 11.1567 25.0098 11.3398C25.0098 11.5229 25.0779 11.6537 25.2128 11.7453C25.3257 11.8107 25.5291 11.8368 25.7096 11.8368H26.0255L27.0412 10.4635H28.1247L29.3434 12.1115V10.4636H30.4269L31.6908 11.68V10.4636H32.4355V12.2031H32.4353ZM23.9265 10.4636H23.2042V12.2031H23.9265V10.4636V10.4636ZM22.4143 10.5421C22.1885 10.4636 21.9175 10.4636 21.5563 10.4636H19.8861V12.2031H20.6084V11.5753H21.3758C21.6464 11.5753 21.8046 11.5885 21.895 11.6407C22.0304 11.7322 22.0304 11.8761 22.0304 11.9808V12.2031H22.7527V11.863C22.7527 11.7061 22.7299 11.6276 22.6173 11.5492C22.572 11.4968 22.4364 11.4314 22.2786 11.3923C22.4591 11.353 22.7754 11.2091 22.7754 10.9344C22.7754 10.7383 22.6398 10.6207 22.4143 10.5421ZM19.3893 11.8369H17.7191V11.497H19.3443V11.1438H17.7191V10.83H19.3893V10.4638H16.997V12.2032H19.3895V11.8369H19.3893V11.8369ZM16.4554 10.4636H15.259L14.4012 11.6407L13.4532 10.4636H12.2795V12.1116L11.0606 10.4636H9.99988L8.71338 12.2031H9.48077L9.77412 11.8107H11.2639L11.5347 12.2031H13.0019V10.8429L14.0401 12.2031H14.6721L15.7105 10.8429V12.2031H16.4554V10.4636V10.4636ZM28.0569 11.4577L27.5601 10.7646L27.086 11.4577H28.0569ZM21.8274 11.183C21.7372 11.2091 21.6239 11.2091 21.4887 11.2091H20.6084V10.8298H21.4887C21.6239 10.8298 21.7593 10.8298 21.8274 10.8561C21.9402 10.8822 21.9851 10.9345 21.9851 11.013C21.9851 11.0915 21.9402 11.1437 21.8274 11.183ZM10.0224 11.4577L10.519 10.7646L11.0156 11.4577H10.0224ZM34.2641 5.02295H8.71338V11.2745L9.57112 10.1237H11.4445L11.6928 10.4114V10.1237H13.8821L14.3562 10.7383L14.8302 10.1237H21.8048C22.1207 10.1237 22.4143 10.1498 22.6175 10.2545V10.1237H24.536V10.2545C24.8519 10.1498 25.2583 10.1237 25.7324 10.1237H28.4861L28.7567 10.4114V10.1237H30.7883L31.0814 10.4114V10.1237H33.0677V12.5431H31.0586L30.6752 12.1769V12.5431H28.17L27.8989 12.1638H27.2667L26.9961 12.5431H25.6869C25.168 12.5431 24.7841 12.4777 24.5358 12.3993V12.5431H21.4209V11.9938C21.4209 11.9154 21.3984 11.9154 21.308 11.9154H21.1951V12.5431H15.1912V12.2423L14.9882 12.5431H13.7242L13.521 12.2553V12.5431H11.1059L10.8351 12.1638H10.2031L9.93229 12.5431H8.71338V19.8803H34.2641V15.4337C33.9705 15.5121 33.5866 15.5513 33.2031 15.5513H31.3522V15.3942C31.1264 15.4859 30.7427 15.5513 30.3814 15.5513H24.5128V14.9759C24.5128 14.9105 24.4905 14.9105 24.3774 14.9105H24.2873V15.5513H22.3462V14.8843C22.0304 14.9628 21.6464 14.9759 21.3531 14.9759H21.1048V15.5513H18.7801L18.1932 15.172L17.5837 15.5513H13.792V13.1188H17.6515L18.2159 13.4849L18.8026 13.1188H21.3984C21.6917 13.1188 22.1885 13.1317 22.4143 13.2496V13.1188H24.7165C24.9422 13.1188 25.4163 13.1448 25.7094 13.2496V13.1188H29.2082V13.2496C29.3887 13.158 29.7498 13.1188 30.0657 13.1188H32.0295V13.2496C32.2325 13.1712 32.5263 13.1188 32.9323 13.1188H34.2643V5.02295H34.2641V5.02295Z" fill="#0077A6"/>
</svg>
